<svg xmlns="http://www.w3.org/2000/svg" viewBox="0 0 800 400" width="800" height="400">
  <rect width="800" height="400" fill="#ffffff"/>
  <g id="grid" stroke="#e5e7eb" stroke-width="1" opacity="0.5">
    <line x1="40" y1="40" x2="760" y2="40"/>
    <line x1="40" y1="104" x2="760" y2="104"/>
    <line x1="40" y1="168" x2="760" y2="168"/>
    <line x1="40" y1="232" x2="760" y2="232"/>
    <line x1="40" y1="296" x2="760" y2="296"/>
    <line x1="40" y1="360" x2="760" y2="360"/>
    <line x1="40" y1="40" x2="40" y2="360"/>
    <line x1="160" y1="40" x2="160" y2="360"/>
    <line x1="280" y1="40" x2="280" y2="360"/>
    <line x1="400" y1="40" x2="400" y2="360"/>
    <line x1="520" y1="40" x2="520" y2="360"/>
    <line x1="640" y1="40" x2="640" y2="360"/>
    <line x1="760" y1="40" x2="760" y2="360"/>
  </g>
  <g id="axes" stroke="#374151" stroke-width="2">
    <line x1="40" y1="360" x2="760" y2="360"/>
    <line x1="40" y1="40" x2="40" y2="360"/>
  </g>
  <g id="cost-line" stroke="#2563eb" stroke-width="3" fill="none">
    <path d="M 40 NaN"/>
    <circle cx="40" cy="NaN" r="4" fill="#2563eb"/>
  </g>
  <g id="regressions">
  </g>
  <g id="slo-violations">
  </g>
  <g id="labels" font-family="monospace" font-size="12" fill="#374151">
    <text x="35" y="360" text-anchor="end" dominant-baseline="middle">$300</text>
    <text x="35" y="296" text-anchor="end" dominant-baseline="middle">$300</text>
    <text x="35" y="232" text-anchor="end" dominant-baseline="middle">$300</text>
    <text x="35" y="168" text-anchor="end" dominant-baseline="middle">$300</text>
    <text x="35" y="104" text-anchor="end" dominant-baseline="middle">$300</text>
    <text x="35" y="40" text-anchor="end" dominant-baseline="middle">$300</text>
    <text x="400" y="390" text-anchor="middle" font-weight="bold">Time</text>
    <text x="10" y="200" text-anchor="middle" font-weight="bold" transform="rotate(-90 10 200)">Monthly Cost ($)</text>
  </g>
</svg>
